<svg width="282" height="253" viewBox="0 0 282 253" fill="none" xmlns="http://www.w3.org/2000/svg">
<path d="M123.228 52.5088C123.215 52.4863 123.202 52.4631 123.192 52.4393L123.209 52.4238C123.217 52.4517 123.224 52.4801 123.228 52.5088Z" fill="#3FBDF1"/>
<path d="M123.296 52.8108C123.27 52.728 123.251 52.6434 123.24 52.5579C123.286 52.6354 123.305 52.7234 123.296 52.8108Z" fill="#3FBDF1"/>
<path d="M135.946 139.816C135.875 139.96 135.816 140.102 135.746 140.251C130.547 151.609 126.921 165.198 126.079 181.461C111.647 149.739 87.7056 134.384 66.3804 127.01C66.7633 116.41 68.405 97.9773 75.1098 86.6521C75.1098 86.6521 86.4637 89.0349 100.755 99.0815C112.03 107.008 125.149 119.721 135.946 139.816Z" fill="#3FBDF1"/>
<path d="M138.074 139.644L137.587 139.546C137.657 139.394 137.719 139.25 137.787 139.104C137.883 139.281 137.981 139.48 138.074 139.644Z" fill="#3FBDF1"/>
<path d="M138.074 139.644L137.587 139.546C137.657 139.394 137.719 139.25 137.787 139.104C137.883 139.281 137.981 139.48 138.074 139.644Z" fill="#3FBDF1"/>
<path d="M128.742 212.457C128.604 212.457 128.461 212.457 128.326 212.457C74.479 212.457 29.8744 175.841 21.8827 128.003C21.3448 123.92 21.2632 121.482 21.2632 121.482C21.2632 121.482 40.6933 119.713 63.2209 127.67C83.2001 134.727 105.621 149.421 119.134 179.773V179.796C119.216 179.978 119.298 180.157 119.371 180.346C123.409 189.531 126.625 200.142 128.726 212.389C128.734 212.412 128.742 212.435 128.742 212.457Z" fill="#3FBDF1"/>
<path d="M254.089 122.948C248.944 177.13 199.961 219.674 140.234 219.891C140.268 217.43 141.127 189.618 159.836 164.402C168.199 153.024 179.433 143.575 192.628 136.822C193.002 136.628 193.366 136.443 193.754 136.259C194.213 136.024 194.684 135.799 195.162 135.574C195.283 135.511 195.413 135.453 195.545 135.39C196.004 135.172 196.463 134.955 196.934 134.745C197.176 134.634 197.418 134.52 197.671 134.417C198.173 134.184 198.685 133.957 199.198 133.74C199.71 133.522 200.161 133.33 200.648 133.131L200.82 133.057C201.186 132.903 201.549 132.759 201.921 132.615C202.382 132.421 202.841 132.244 203.309 132.067C204.672 131.536 206.077 131.031 207.51 130.551L208.006 130.381C208.611 130.172 209.22 129.972 209.836 129.777C222.226 125.836 236.855 123.332 254.089 122.948Z" fill="#71DDB1"/>
<path d="M172.801 97.8106C160.599 106.104 146.855 119.175 137.787 139.104C126.999 118.611 113.916 105.644 102.664 97.5604C109.309 86.4424 124.372 63.8451 138.074 53.2754C138.074 53.2754 158.82 71.663 172.801 97.8106Z" fill="#71DDB1"/>
<path d="M208.606 127.662C208.003 127.852 207.406 128.049 206.809 128.254L206.325 128.42C204.917 128.893 203.543 129.391 202.205 129.911C201.746 130.086 201.295 130.257 200.845 130.447C200.479 130.591 200.121 130.732 199.764 130.882L199.592 130.952C199.116 131.149 198.64 131.346 198.184 131.554C197.728 131.761 197.179 131.986 196.683 132.216C196.438 132.317 196.199 132.428 195.962 132.539C195.5 132.744 195.05 132.956 194.599 133.171C194.472 133.234 194.343 133.287 194.225 133.35C193.766 133.573 193.307 133.792 192.853 134.022C192.479 134.204 192.121 134.384 191.755 134.573C178.807 141.197 167.781 150.465 159.571 161.628C141.223 186.36 140.378 213.645 140.344 216.058L140.302 215.987C138.105 203.181 134.746 192.089 130.522 182.487L130.854 181.509L130.277 181.911C130.277 181.911 130.277 181.911 130.277 181.895C131.102 165.628 134.65 152.026 139.742 140.673L140.217 140.766L139.936 140.238C148.831 120.688 162.314 107.867 174.29 99.7334C188.396 90.1568 200.42 87.0564 200.42 87.0564C206.834 94.1719 208.299 115.938 208.606 127.662Z" fill="#71DDB1"/>
<path d="M127.376 184.295V184.268C127.376 184.268 127.376 184.284 127.376 184.295Z" stroke="#CCDDE2" stroke-width="0.585007" stroke-miterlimit="10"/>
<path d="M137.784 139.352C137.711 139.506 137.646 139.657 137.573 139.819C132.084 152.064 128.257 166.732 127.365 184.276C112.131 150.055 86.8517 133.487 64.3269 125.535C64.7296 114.099 66.4642 94.2151 73.5491 81.9954C73.5491 81.9954 85.5367 84.5651 100.627 95.4052C112.533 103.956 126.385 117.672 137.784 139.352Z" stroke="#CCDDE2" stroke-width="0.585007" stroke-miterlimit="10"/>
<path d="M138.089 139.923L137.573 139.819C137.646 139.657 137.711 139.506 137.784 139.352C137.886 139.539 137.982 139.733 138.089 139.923Z" stroke="#CCDDE2" stroke-width="0.585007" stroke-miterlimit="10"/>
<path d="M127.376 184.295V184.268C127.376 184.268 127.376 184.284 127.376 184.295Z" stroke="#CCDDE2" stroke-width="0.585007" stroke-miterlimit="10"/>
<path d="M138.089 139.923L137.573 139.819C137.646 139.657 137.711 139.506 137.784 139.352C137.886 139.539 137.982 139.733 138.089 139.923Z" stroke="#CCDDE2" stroke-width="0.585007" stroke-miterlimit="10"/>
<path opacity="0.9" d="M44.917 180.703C43.923 179.614 42.9459 178.5 42.0053 177.368C29.3445 162.253 21.0045 144.585 17.7149 125.909C16.8955 121.333 17.0222 118.558 17.0222 118.558C17.0222 118.558 38.9162 116.567 64.3302 125.535C86.8578 133.489 112.128 150.045 127.365 184.276V184.304C127.458 184.508 127.554 184.713 127.63 184.925C132.192 195.285 135.813 207.242 138.184 221.059C138.184 221.084 138.184 221.109 138.184 221.137C138.024 221.137 137.872 221.137 137.711 221.137C106.294 221.097 77.6412 209.852 56.0372 191.482C53.7845 189.57 51.5908 187.571 49.4958 185.501" stroke="#CCDDE2" stroke-width="0.585007" stroke-miterlimit="10"/>
<path d="M127.376 184.295V184.268C127.376 184.268 127.376 184.284 127.376 184.295Z" stroke="#CCDDE2" stroke-width="0.585007" stroke-miterlimit="10"/>
<path opacity="0.9" d="M258.679 118.566C253.235 175.887 201.422 220.887 138.235 221.117C138.271 218.514 139.181 189.092 158.968 162.416C167.818 150.38 179.705 140.385 193.664 133.242C194.061 133.037 194.447 132.842 194.849 132.648C195.337 132.395 195.832 132.163 196.328 131.923C196.454 131.854 196.592 131.796 196.73 131.728C197.218 131.498 197.705 131.268 198.2 131.048C198.457 130.927 198.713 130.796 198.98 130.697C199.513 130.444 200.053 130.215 200.597 129.985C201.14 129.755 201.613 129.55 202.129 129.338L202.312 129.259C202.697 129.098 203.083 128.946 203.477 128.792C203.965 128.587 204.449 128.4 204.945 128.213C206.386 127.652 207.873 127.117 209.388 126.606L209.912 126.427C210.554 126.207 211.196 125.992 211.849 125.79C224.974 121.611 240.451 118.973 258.679 118.566Z" stroke="#CCDDE2" stroke-width="0.585007" stroke-miterlimit="10"/>
<path d="M174.822 95.6704C161.917 104.441 147.375 118.268 137.784 139.351C126.385 117.671 112.533 103.956 100.627 95.4051C107.667 83.6377 123.594 59.739 138.08 48.5579C138.088 48.5579 160.016 68.0093 174.822 95.6704Z" stroke="#CCDDE2" stroke-width="0.585007" stroke-miterlimit="10"/>
<path d="M53.2939 158.292C53.2967 158.275 53.2967 158.258 53.2939 158.241C53.2939 158.223 53.2939 158.205 53.2939 158.172C53.2894 158.143 53.2894 158.114 53.2939 158.085C53.3018 158.146 53.315 158.207 53.3333 158.266C53.3291 158.273 53.3234 158.278 53.3166 158.283C53.3098 158.287 53.3021 158.29 53.2939 158.292Z" fill="white"/>
<path d="M53.3986 174.626C52.9641 175.884 52.4092 177.105 51.7401 178.277C51.5486 178.608 51.3599 178.932 51.1515 179.255C50.4401 180.453 49.5672 181.568 48.5524 182.575C48.3722 182.522 48.192 182.454 48.0314 182.396C47.9948 182.396 47.9639 182.371 47.9357 182.36C44.6551 181.077 42.1912 178.669 41.459 175.963C40.8057 173.58 41.3942 171.002 40.1327 168.766C38.5783 166.012 34.3882 164.289 33.8644 161.176C33.3913 158.265 36.3114 155.594 35.8356 152.744C35.2949 149.517 30.8767 147.604 30.06 144.456C29.5391 142.5 30.0037 140.243 29.815 138.227C29.597 135.973 29.1713 133.739 28.5422 131.549C28.8464 131.531 29.1505 131.523 29.4546 131.513C35.6497 131.42 41.78 134.545 43.7906 138.95C45.4126 142.507 44.5875 146.616 46.7389 149.951C46.8692 150.167 47.015 150.375 47.1754 150.573C47.4576 150.925 47.7613 151.262 48.0849 151.584L48.7692 152.223C48.8819 152.324 49.0058 152.418 49.1184 152.529C49.231 152.64 49.3549 152.733 49.4704 152.845C50.5405 153.762 51.633 154.689 52.3427 155.788C52.4082 155.884 52.4656 155.983 52.5144 156.087C52.5808 156.186 52.6374 156.291 52.6834 156.4C52.7446 156.511 52.7991 156.625 52.8467 156.741C52.903 156.867 52.9509 156.994 52.996 157.133C53.0635 157.337 53.1311 157.532 53.1762 157.737C53.1762 157.787 53.1762 157.83 53.1959 157.873C53.2156 157.916 53.1959 157.906 53.1959 157.924C53.2 157.94 53.2 157.957 53.1959 157.974C53.2 158.003 53.2066 158.032 53.2156 158.06V158.078C53.2166 158.109 53.2223 158.141 53.2325 158.171C53.2325 158.204 53.2325 158.222 53.2325 158.239C53.2354 158.256 53.2354 158.273 53.2325 158.29V158.308L52.5032 167.803C52.9706 170.1 54.1392 172.39 53.3986 174.626Z" fill="white"/>
<path d="M58.9068 151.576C59.3827 149.517 59.4193 147.357 60.5006 145.391C62.5112 141.767 68.3853 139.137 74.5438 138.968H74.6564C75.2196 138.968 75.7828 138.968 76.346 138.993C75.7089 140.877 75.2742 142.811 75.0478 144.769C74.8395 146.513 75.3294 148.463 74.7916 150.139C73.9271 152.86 69.3286 154.513 68.7711 157.295C68.2755 159.761 71.3195 162.068 70.8183 164.577C70.2776 167.265 65.9157 168.754 64.305 171.147C63.004 173.08 63.6123 175.298 62.9392 177.35C62.1508 179.69 59.5601 181.774 56.15 182.871C55.9303 182.939 55.7332 183.007 55.5136 183.068C55.3981 183.093 55.2658 183.136 55.1531 183.162C55.1137 183.136 55.0771 183.101 55.0292 183.068C53.9282 182.227 52.6948 180.807 51.6726 179.278L51.7486 178.308C52.4178 177.136 52.9727 175.914 53.4072 174.656C54.1478 172.42 52.9792 170.131 52.5624 167.834L53.2918 158.338L53.5199 158.169C53.6032 158.114 53.6822 158.054 53.7564 157.989C54.8828 157.173 56.0993 156.39 56.9694 155.463C58.0507 154.323 58.5548 153.072 58.8758 151.761" fill="white"/>
<path d="M58.8784 151.714C58.8784 151.67 58.8982 151.63 58.9066 151.576L58.8784 151.714Z" fill="white"/>
<path d="M58.9066 151.569C58.9066 151.622 58.8869 151.662 58.8784 151.705C58.5574 153.017 58.0533 154.267 56.972 155.407C56.1019 156.334 54.8882 157.118 53.759 157.934C53.6848 157.998 53.6058 158.058 53.5225 158.113L53.2944 158.29C53.2982 158.279 53.2982 158.268 53.2944 158.257C53.2857 158.228 53.2754 158.199 53.2634 158.171C53.259 158.143 53.259 158.114 53.2634 158.085V158.068C53.2544 158.04 53.2478 158.011 53.2437 157.982C53.2478 157.965 53.2478 157.948 53.2437 157.931C53.2479 157.923 53.2501 157.915 53.2501 157.906C53.2501 157.897 53.2479 157.889 53.2437 157.881C53.2366 157.835 53.2263 157.789 53.2127 157.744C53.1677 157.54 53.1001 157.345 53.0325 157.14C52.9874 157.011 52.9396 156.875 52.8832 156.749C52.8356 156.632 52.7811 156.519 52.7199 156.408C52.68 156.297 52.6231 156.191 52.551 156.094C52.5021 155.991 52.4447 155.891 52.3792 155.796C51.6696 154.697 50.577 153.775 49.5069 152.852C49.3915 152.741 49.2704 152.63 49.1549 152.536C49.0395 152.443 48.9184 152.332 48.8057 152.231L48.1215 151.591C47.7978 151.27 47.4942 150.932 47.2119 150.581C47.2119 150.581 47.8427 140.744 53.4464 137.767C58.7376 134.932 58.9066 149.909 58.9066 151.569Z" fill="white"/>
<path d="M58.8784 151.714C58.8784 151.67 58.8982 151.63 58.9066 151.576L58.8784 151.714Z" fill="white"/>
<path d="M53.2859 158.258V158.299C53.2887 158.282 53.2887 158.265 53.2859 158.248C53.2859 158.23 53.2859 158.213 53.2859 158.179C53.2816 158.151 53.2816 158.122 53.2859 158.093C53.2818 158.148 53.2818 158.203 53.2859 158.258Z" fill="white"/>
<path d="M72.2508 142.116C62.15 151.869 57.4023 172.438 55.5522 183.05C55.4002 183.947 55.2706 184.766 55.1467 185.504" fill="white"/>
<path d="M73.1833 191.48L68.537 216.081C68.427 216.753 68.0558 217.369 67.489 217.819C66.9222 218.269 66.1963 218.525 65.4395 218.542H41.1491C40.3858 218.524 39.6545 218.263 39.0867 217.805C38.5189 217.347 38.1518 216.722 38.0515 216.043L33.7656 191.48H73.1833Z" fill="white"/>
<path d="M77.596 188.736C77.5537 189.464 77.2065 190.151 76.6239 190.66C76.0412 191.169 75.2661 191.462 74.4534 191.48H32.5604C31.7558 191.462 30.9875 191.176 30.4065 190.676C29.8255 190.176 29.4739 189.499 29.4207 188.779C29.2433 187.025 30.6991 185.494 32.5604 185.494H74.4534C76.295 185.506 77.7452 186.984 77.596 188.736Z" fill="white"/>
<path d="M53.3145 158.309C53.3138 158.254 53.3033 158.199 53.2834 158.146L53.3145 158.309Z" fill="white"/>
<path d="M32.5552 135.162C42.2505 146.462 46.8123 170.285 48.6061 182.583C48.7582 183.649 48.8877 184.627 49.0031 185.501" fill="white"/>
<path d="M54.1674 147.169C52.9537 150.523 52.8946 153.908 53.041 156.054C53.0797 156.746 53.1615 157.436 53.286 158.121" fill="white"/>
<path d="M53.2939 158.292C53.2967 158.275 53.2967 158.258 53.2939 158.241C53.2939 158.223 53.2939 158.205 53.2939 158.172C53.2894 158.143 53.2894 158.114 53.2939 158.085C53.3018 158.146 53.315 158.207 53.3333 158.266C53.3291 158.273 53.3234 158.278 53.3166 158.283C53.3098 158.287 53.3021 158.29 53.2939 158.292Z" stroke="#CCDDE2" stroke-width="0.585007" stroke-miterlimit="10"/>
<path d="M53.3986 174.626C52.9641 175.884 52.4092 177.105 51.7401 178.277C51.5486 178.608 51.3599 178.932 51.1515 179.255C50.4401 180.453 49.5672 181.568 48.5524 182.575C48.3722 182.522 48.192 182.454 48.0314 182.396C47.9948 182.396 47.9639 182.371 47.9357 182.36C44.6551 181.077 42.1912 178.669 41.459 175.963C40.8057 173.58 41.3942 171.002 40.1327 168.766C38.5783 166.012 34.3882 164.289 33.8644 161.176C33.3913 158.265 36.3114 155.594 35.8356 152.744C35.2949 149.517 30.8767 147.604 30.06 144.456C29.5391 142.5 30.0037 140.243 29.815 138.227C29.597 135.973 29.1713 133.739 28.5422 131.549C28.8464 131.531 29.1505 131.523 29.4546 131.513C35.6497 131.42 41.78 134.545 43.7906 138.95C45.4126 142.507 44.5875 146.616 46.7389 149.951C46.8692 150.167 47.015 150.375 47.1754 150.573C47.4576 150.925 47.7613 151.262 48.0849 151.584L48.7692 152.223C48.8819 152.324 49.0058 152.418 49.1184 152.529C49.231 152.64 49.3549 152.733 49.4704 152.845C50.5405 153.762 51.633 154.689 52.3427 155.788C52.4082 155.884 52.4656 155.983 52.5144 156.087C52.5808 156.186 52.6374 156.291 52.6834 156.4C52.7446 156.511 52.7991 156.625 52.8467 156.741C52.903 156.867 52.9509 156.994 52.996 157.133C53.0635 157.337 53.1311 157.532 53.1762 157.737C53.1762 157.787 53.1762 157.83 53.1959 157.873C53.2156 157.916 53.1959 157.906 53.1959 157.924C53.2 157.94 53.2 157.957 53.1959 157.974C53.2 158.003 53.2066 158.032 53.2156 158.06V158.078C53.2166 158.109 53.2223 158.141 53.2325 158.171V158.171C53.2325 158.204 53.2325 158.222 53.2325 158.239C53.2354 158.256 53.2354 158.273 53.2325 158.29V158.308L52.5032 167.803C52.9706 170.1 54.1392 172.39 53.3986 174.626Z" stroke="#CCDDE2" stroke-width="0.585007" stroke-miterlimit="10"/>
<path d="M58.9068 151.576C59.3827 149.517 59.4193 147.357 60.5006 145.391C62.5112 141.767 68.3853 139.137 74.5438 138.968H74.6564C75.2196 138.968 75.7828 138.968 76.346 138.993C75.7089 140.877 75.2742 142.811 75.0478 144.769C74.8395 146.513 75.3294 148.463 74.7916 150.139C73.9271 152.86 69.3286 154.513 68.7711 157.295C68.2755 159.761 71.3195 162.068 70.8183 164.577C70.2776 167.265 65.9157 168.754 64.305 171.147C63.004 173.08 63.6123 175.298 62.9392 177.35C62.1508 179.69 59.5601 181.774 56.15 182.871C55.9303 182.939 55.7332 183.007 55.5136 183.068C55.3981 183.093 55.2658 183.136 55.1531 183.162C55.1137 183.136 55.0771 183.101 55.0292 183.068C53.9282 182.227 52.6948 180.807 51.6726 179.278L51.7486 178.308C52.4178 177.136 52.9727 175.914 53.4072 174.656C54.1478 172.42 52.9792 170.131 52.5624 167.834L53.2918 158.338L53.5199 158.169C53.6032 158.114 53.6822 158.054 53.7564 157.989C54.8828 157.173 56.0993 156.39 56.9694 155.463C58.0507 154.323 58.5548 153.072 58.8758 151.761" stroke="#CCDDE2" stroke-width="0.585007" stroke-miterlimit="10"/>
<path d="M58.8784 151.714C58.8784 151.67 58.8982 151.63 58.9066 151.576" stroke="#CCDDE2" stroke-width="0.585007" stroke-miterlimit="10"/>
<path d="M58.9066 151.569C58.9066 151.622 58.8869 151.662 58.8784 151.705C58.5574 153.017 58.0533 154.267 56.972 155.407C56.1019 156.334 54.8882 157.118 53.759 157.934C53.6848 157.998 53.6058 158.058 53.5225 158.113L53.2944 158.29C53.2982 158.279 53.2982 158.268 53.2944 158.257C53.2857 158.228 53.2754 158.199 53.2634 158.171V158.171C53.259 158.143 53.259 158.114 53.2634 158.085V158.068C53.2544 158.04 53.2478 158.011 53.2437 157.982C53.2478 157.965 53.2478 157.948 53.2437 157.931C53.2479 157.923 53.2501 157.915 53.2501 157.906C53.2501 157.897 53.2479 157.889 53.2437 157.881C53.2366 157.835 53.2263 157.789 53.2127 157.744C53.1677 157.54 53.1001 157.345 53.0325 157.14C52.9874 157.011 52.9396 156.875 52.8832 156.749C52.8356 156.632 52.7811 156.519 52.7199 156.408C52.68 156.297 52.6231 156.191 52.551 156.094C52.5021 155.991 52.4447 155.891 52.3792 155.796C51.6696 154.697 50.577 153.775 49.5069 152.852C49.3915 152.741 49.2704 152.63 49.1549 152.536C49.0395 152.443 48.9184 152.332 48.8057 152.231L48.1215 151.591C47.7978 151.27 47.4942 150.932 47.2119 150.581C47.2119 150.581 47.8427 140.744 53.4464 137.767C58.7376 134.932 58.9066 149.909 58.9066 151.569Z" stroke="#CCDDE2" stroke-width="0.585007" stroke-miterlimit="10"/>
<path d="M58.8784 151.714C58.8784 151.67 58.8982 151.63 58.9066 151.576" stroke="#CCDDE2" stroke-width="0.585007" stroke-miterlimit="10"/>
<path d="M53.2859 158.258V158.299C53.2887 158.282 53.2887 158.265 53.2859 158.248C53.2859 158.23 53.2859 158.213 53.2859 158.179C53.2816 158.151 53.2816 158.122 53.2859 158.093C53.2818 158.148 53.2818 158.203 53.2859 158.258V158.258Z" stroke="#CCDDE2" stroke-width="0.585007" stroke-miterlimit="10"/>
<path d="M72.2508 142.116C62.15 151.869 57.4023 172.438 55.5522 183.05C55.4002 183.947 55.2706 184.766 55.1467 185.504" stroke="#CCDDE2" stroke-width="0.585007" stroke-miterlimit="10"/>
<path d="M73.1833 191.48L68.537 216.081C68.427 216.753 68.0558 217.369 67.489 217.819C66.9222 218.269 66.1963 218.525 65.4395 218.542H41.1491C40.3858 218.524 39.6545 218.263 39.0867 217.805C38.5189 217.347 38.1518 216.722 38.0515 216.043L33.7656 191.48H73.1833Z" stroke="#CCDDE2" stroke-width="0.585007" stroke-miterlimit="10"/>
<path d="M77.596 188.736C77.5537 189.464 77.2065 190.151 76.6239 190.66C76.0412 191.169 75.2661 191.462 74.4534 191.48H32.5604C31.7558 191.462 30.9875 191.176 30.4065 190.676C29.8255 190.176 29.4739 189.499 29.4207 188.779V188.779C29.2433 187.025 30.6991 185.494 32.5604 185.494H74.4534C76.295 185.506 77.7452 186.984 77.596 188.736Z" stroke="#CCDDE2" stroke-width="0.585007" stroke-miterlimit="10"/>
<path d="M53.3145 158.309C53.3138 158.254 53.3033 158.199 53.2834 158.146L53.3145 158.309Z" stroke="#CCDDE2" stroke-width="0.585007" stroke-miterlimit="10"/>
<path d="M32.5552 135.162C42.2505 146.462 46.8123 170.285 48.6061 182.583C48.7582 183.649 48.8877 184.627 49.0031 185.501" stroke="#CCDDE2" stroke-width="0.585007" stroke-miterlimit="10"/>
<path d="M54.1674 147.169C52.9537 150.523 52.8946 153.908 53.041 156.054C53.0797 156.746 53.1615 157.436 53.286 158.121" stroke="#CCDDE2" stroke-width="0.585007" stroke-miterlimit="10"/>
<path d="M211.849 125.79C211.196 125.992 210.554 126.207 209.912 126.427L209.388 126.606C207.873 127.112 206.386 127.652 204.944 128.213C204.449 128.4 203.965 128.587 203.477 128.792C203.083 128.946 202.697 129.098 202.312 129.259L202.129 129.338C201.613 129.55 201.101 129.762 200.597 129.985C200.093 130.207 199.513 130.452 198.98 130.697C198.699 130.808 198.457 130.927 198.2 131.048C197.705 131.268 197.218 131.498 196.73 131.728C196.592 131.796 196.449 131.854 196.328 131.923C195.832 132.163 195.336 132.4 194.849 132.648C194.447 132.842 194.061 133.037 193.664 133.242C179.705 140.385 167.818 150.38 158.968 162.416C139.181 189.092 138.271 218.512 138.235 221.117L138.187 221.041C135.818 207.232 132.194 195.267 127.641 184.908L127.999 183.854L127.376 184.288C127.376 184.288 127.376 184.288 127.376 184.271C128.269 166.727 132.096 152.059 137.584 139.814L138.099 139.918C137.998 139.728 137.897 139.533 137.795 139.346C147.386 118.263 161.928 104.436 174.833 95.6654C190.04 85.3357 203.013 81.9902 203.013 81.9902C209.94 89.6718 211.517 113.146 211.849 125.79Z" stroke="#CCDDE2" stroke-width="0.585007" stroke-miterlimit="10"/>
<path d="M212.77 216.548C210.75 216.185 208.772 215.75 206.834 215.245C198.888 213.16 189.657 209.602 186.492 202.123C185.7 200.19 185.45 198.113 185.765 196.073C186.08 194.034 186.949 192.095 188.297 190.429C189.725 188.651 191.732 187.316 194.042 186.606C199.068 185.148 204.629 187.419 208.358 190.78C212.086 194.141 214.485 198.467 217.405 202.418C214.764 197.112 212.083 191.652 211.72 185.85C211.438 181.327 212.807 176.423 216.282 173.024C219.481 169.896 226.96 167.447 231.364 169.739C234.27 171.255 235.43 174.479 235.929 177.461C237.297 185.62 235.54 193.911 233.791 202.012C234.966 197.681 236.227 193.309 238.621 189.403C241.014 185.496 244.684 182.045 249.383 180.597C252.675 179.586 256.584 179.695 259.341 181.608C261.912 183.376 263.061 186.391 263.415 189.287C264.007 194.143 262.734 199.068 260.543 203.538C252.368 220.222 229.697 219.581 212.77 216.548Z" fill="white"/>
<path d="M231.215 208.288C231.215 208.288 243.816 211.429 248.265 195.712L231.215 208.288Z" fill="white"/>
<path d="M225.608 181.461C222.105 188.587 225.608 209.966 225.608 209.966V181.461Z" fill="white"/>
<path d="M213.931 207.803C213.404 207.722 208.349 207.088 204.041 205.311C200.704 203.937 197.812 201.875 197.812 198.858" fill="white"/>
<path d="M205.052 198.861C205.052 198.861 200.127 204.013 204.041 205.314L205.052 198.861Z" fill="white"/>
<path d="M201.783 210.001C202.484 209.127 206.131 210.881 208.513 206.754L201.783 210.001Z" fill="white"/>
<path d="M224.051 190.894C222.806 190.055 219.546 190.894 219.067 184.185L224.051 190.894Z" fill="white"/>
<path d="M224.594 197.18C224.594 197.18 230.046 195.411 230.046 191.583L224.594 197.18Z" fill="white"/>
<path d="M236.312 208.379C236.312 208.379 239.156 201.792 240.325 198.858L236.312 208.379Z" fill="white"/>
<path d="M245.142 202.085C245.142 202.085 248.265 204.306 252.001 200.743L245.142 202.085Z" fill="white"/>
<path d="M245.143 198.861C245.143 198.861 243.126 198.075 244.061 193.554L245.143 198.861Z" fill="white"/>
<path d="M212.77 216.548C210.732 216.296 208.769 215.753 206.834 215.245C198.888 213.16 189.657 209.602 186.492 202.123C185.7 200.19 185.45 198.113 185.765 196.073C186.08 194.034 186.949 192.095 188.297 190.429C189.725 188.652 191.732 187.316 194.042 186.606C199.068 185.148 204.629 187.419 208.358 190.78C212.086 194.141 214.485 198.467 217.405 202.418C214.764 197.112 212.083 191.652 211.72 185.85C211.438 181.327 212.807 176.423 216.282 173.024C219.481 169.896 226.96 167.447 231.364 169.739C234.27 171.255 235.43 174.479 235.929 177.461C237.297 185.62 235.54 193.911 233.791 202.012C234.966 197.681 236.227 193.309 238.621 189.403C241.014 185.496 244.684 182.045 249.383 180.597C252.675 179.586 256.584 179.695 259.341 181.608C261.912 183.376 263.061 186.391 263.415 189.287C264.007 194.143 262.81 199.101 260.543 203.538C252.236 219.783 229.39 218.555 212.77 216.548Z" stroke="#CCDDE2" stroke-width="0.585007" stroke-miterlimit="10"/>
<path d="M231.215 208.288C231.215 208.288 243.816 211.429 248.265 195.712" stroke="#CCDDE2" stroke-width="0.585007" stroke-miterlimit="10"/>
<path d="M225.608 181.461C222.105 188.587 225.608 209.966 225.608 209.966" stroke="#CCDDE2" stroke-width="0.585007" stroke-miterlimit="10"/>
<path d="M213.931 207.803C213.404 207.722 208.349 207.088 204.041 205.311C200.704 203.937 197.812 201.875 197.812 198.858" stroke="#CCDDE2" stroke-width="0.585007" stroke-miterlimit="10"/>
<path d="M205.052 198.861C205.052 198.861 200.127 204.013 204.041 205.314" stroke="#CCDDE2" stroke-width="0.585007" stroke-miterlimit="10"/>
<path d="M201.783 210.001C202.484 209.127 206.131 210.881 208.513 206.754" stroke="#CCDDE2" stroke-width="0.585007" stroke-miterlimit="10"/>
<path d="M224.051 190.894C222.806 190.055 219.546 190.894 219.067 184.185" stroke="#CCDDE2" stroke-width="0.585007" stroke-miterlimit="10"/>
<path d="M224.594 197.18C224.594 197.18 230.046 195.411 230.046 191.583" stroke="#CCDDE2" stroke-width="0.585007" stroke-miterlimit="10"/>
<path d="M236.312 208.379C236.312 208.379 239.156 201.792 240.325 198.858" stroke="#CCDDE2" stroke-width="0.585007" stroke-miterlimit="10"/>
<path d="M245.142 202.085C245.142 202.085 248.265 204.306 252.001 200.743" stroke="#CCDDE2" stroke-width="0.585007" stroke-miterlimit="10"/>
<path d="M245.143 198.861C245.143 198.861 243.126 198.075 244.061 193.554" stroke="#CCDDE2" stroke-width="0.585007" stroke-miterlimit="10"/>
<path d="M246.001 159.551C248.519 161.498 250.767 163.709 252.695 166.138C256.24 170.487 258.245 175.692 258.451 181.077" stroke="#CCDDE2" stroke-width="0.585007" stroke-miterlimit="10"/>
<path d="M158.18 70.4679C163.249 67.7288 168.534 65.2955 174.155 63.5773C188.17 59.2817 203.796 60.2343 214.899 69.6618C224.524 77.826 229.075 89.9547 230.004 101.578C230.004 101.747 230.035 101.927 230.043 102.106C230.468 108.095 230.119 114.707 230.071 121.325" stroke="#CCDDE2" stroke-width="0.585007" stroke-miterlimit="10"/>
<path d="M47.696 120.959C48.966 113.684 47.4144 106.841 46.5697 99.3544C44.3957 79.8474 51.3089 56.5072 76.3512 53.5887C89.9579 51.9968 101.002 56.5577 110.202 65.3055C112.269 67.2689 114.336 69.5759 116.524 71.8045" stroke="#CCDDE2" stroke-width="0.585007" stroke-miterlimit="10"/>
<path d="M37.9305 185.383C37.9305 185.383 18.965 177.888 20.863 163.806C21.3924 159.831 23.479 156.276 26.1148 153.009" stroke="#CCDDE2" stroke-width="0.585007" stroke-miterlimit="10"/>
<path d="M209.225 194.772C208.504 194.306 207.753 193.862 206.973 193.443C199.184 189.307 188.57 187.702 179.672 187.222C179.128 187.187 178.593 187.161 178.064 187.141C177.363 187.114 176.676 186.949 176.053 186.659C175.408 186.366 174.847 185.943 174.414 185.423C173.978 183.884 173.453 182.366 172.843 180.875L171.593 175.821C171.127 174.359 170.761 172.873 170.497 171.371C169.202 163.773 168.245 154.33 167.907 150.795C167.947 150.811 167.99 150.822 168.034 150.828L171.9 151.94C171.914 151.939 171.928 151.939 171.942 151.94L173.313 152.301C178.63 153.656 184.208 154.672 189.747 154.78C194.968 154.879 200.696 154.111 205.156 151.518C205.532 151.306 205.896 151.078 206.249 150.836C209.69 148.511 212.081 144.943 213.435 141.322C215.927 134.625 216.465 127.466 214.998 120.529C214.582 118.619 213.997 116.742 213.249 114.915C211.278 110.05 208.431 105.492 205.987 100.764C205.424 99.6627 204.618 98.5079 204.52 97.285C204.402 95.827 205.235 94.4246 205.497 93.0071C205.802 91.3037 205.944 89.58 205.919 87.8549C205.916 85.8086 205.479 83.7815 204.632 81.8815C203.903 80.2845 202.608 77.6061 200.307 77.7046C199.569 75.5872 198.336 73.1362 196.165 72.8607C195.601 72.7833 195.027 72.9086 194.565 73.2094C194.406 73.0046 194.234 72.808 194.05 72.6207C193.143 71.706 191.428 70.8822 190.051 71.3573C187.32 72.3276 188.57 75.7009 189.925 78.2605C189.228 78.1259 188.512 78.0833 187.802 78.1342C186.211 78.2605 184.369 78.8367 183.752 80.2113C183.417 80.9693 183.535 82.3363 184.391 82.7659C185.478 83.299 186.813 82.9453 187.9 83.4456C189.114 84.0065 189.59 85.51 189.412 86.6471C189.378 87.0928 189.18 87.5158 188.849 87.8498C186.929 89.5731 185.611 84.8176 184.881 84.0343C183.89 82.9655 182.437 83.16 181.404 84.0621C179.362 85.8309 180.249 89.3937 181.105 91.5314C182.034 93.8712 183.243 96.3323 185.171 98.1542C188.379 101.174 188.731 105.987 189.578 109.881C189.928 111.491 190.263 113.115 190.533 114.738C191.068 117.886 191.378 121.055 191.096 124.233C191.025 125.106 190.753 125.956 190.299 126.73C189.844 127.504 189.216 128.185 188.454 128.731C187.692 129.276 186.812 129.675 185.87 129.901C184.928 130.127 183.945 130.176 182.981 130.045C180.686 129.732 177.999 129.358 175.138 128.956C175.138 128.956 175.161 128.936 175.175 128.931C171.275 127.741 167.825 127.594 164.393 127.432C154.708 126.088 146.013 124.825 146.013 124.825C145.815 124.792 145.636 124.698 145.506 124.56C145.377 124.422 145.305 124.247 145.303 124.067L145.185 114.419C145.847 115.147 147.283 115.248 148.161 114.826C148.511 114.666 148.798 114.416 148.985 114.107C149.173 113.798 149.252 113.445 149.212 113.095C149.781 113.091 150.341 112.962 150.842 112.719C150.991 112.644 151.133 112.56 151.267 112.466C151.545 112.243 151.77 111.97 151.926 111.666C152.082 111.362 152.168 111.032 152.177 110.697C152.189 110.512 152.179 110.327 152.146 110.144C152.146 110.076 152.123 110.01 152.109 109.937C152.078 109.795 152.042 109.656 151.997 109.507C151.974 109.421 151.946 109.335 151.915 109.254C151.842 109.002 151.76 108.749 151.698 108.496C151.731 108.5 151.764 108.5 151.797 108.496C152.075 108.482 152.351 108.447 152.622 108.39C152.88 108.335 153.131 108.259 153.374 108.163C153.51 108.109 153.642 108.048 153.771 107.981C153.793 107.974 153.813 107.963 153.83 107.948C154.048 107.828 154.254 107.692 154.447 107.541C154.512 107.493 154.574 107.442 154.632 107.387C154.742 107.295 154.847 107.197 154.945 107.094C155.071 106.962 155.188 106.823 155.297 106.68C155.35 106.619 155.397 106.553 155.438 106.485C155.829 105.923 156.114 105.306 156.283 104.661C156.297 104.6 156.314 104.539 156.328 104.481C156.891 102.076 156.046 99.3292 153.692 98.4321C153.222 98.2527 151.555 98.0784 151.555 97.4442C151.555 97.3988 151.563 97.3538 151.577 97.3102C151.575 97.3011 151.575 97.2915 151.577 97.2824C151.622 97.1882 151.686 97.1025 151.766 97.0297C151.802 96.9893 151.853 96.9489 151.898 96.9085C151.997 96.8301 152.107 96.7569 152.211 96.681C152.318 96.6177 152.42 96.5485 152.518 96.4738C152.559 96.4429 152.598 96.41 152.636 96.3753C152.709 96.302 152.785 96.2288 152.853 96.1555C152.92 96.0832 152.982 96.0072 153.039 95.9281C153.098 95.8472 153.157 95.7663 153.21 95.6754C153.269 95.5957 153.319 95.5111 153.36 95.4227C153.444 95.2728 153.514 95.1163 153.568 94.9552C153.663 94.6905 153.723 94.4165 153.745 94.1391C153.745 94.0405 153.745 93.9394 153.745 93.8384C153.745 91.6198 151.729 89.323 149.181 89.0804C148.769 89.0399 148.352 89.084 147.961 89.2092C147.77 89.2688 147.582 89.338 147.398 89.4164L147.117 89.5352C146.925 89.6161 146.731 89.702 146.531 89.7879C146.362 89.8599 146.18 89.9011 145.993 89.9092C145.95 89.9079 145.908 89.9028 145.866 89.894L145.785 89.8738C145.726 89.8621 145.672 89.8348 145.63 89.7955C145.58 89.7632 145.539 89.7218 145.509 89.6742C145.483 89.6278 145.465 89.5785 145.455 89.5276C145.453 89.5246 145.452 89.5211 145.452 89.5175C145.452 89.514 145.453 89.5105 145.455 89.5074C145.441 89.4485 145.434 89.3883 145.436 89.328C145.435 89.2031 145.455 89.0788 145.495 88.9591C145.574 88.6981 145.614 88.4287 145.613 88.1581C145.613 88.0601 145.605 87.9621 145.59 87.865C145.576 87.73 145.554 87.5959 145.523 87.4632C145.247 86.4857 144.592 85.6284 143.676 85.0451C141.093 83.4077 136.253 83.4001 134.918 86.4348C134.89 86.4803 134.876 86.5283 134.853 86.5738C134.681 86.3944 134.51 86.2074 134.338 86.0204C134.219 85.9518 134.095 85.891 133.966 85.8385C132.178 85.1385 129.618 85.4392 128.315 86.8088C127.233 87.9458 126.878 89.702 127.839 90.9907C127.3 90.3665 126.57 89.8975 125.738 89.6413C125.837 89.8913 125.97 90.1297 126.132 90.3514C126.056 90.2583 125.974 90.1689 125.887 90.0835C125.82 90.0153 125.752 89.9547 125.684 89.8965C125.617 89.8384 125.521 89.755 125.439 89.6944C125.358 89.6338 125.268 89.5681 125.18 89.5074C123.505 88.4057 121.038 88.292 119.475 89.6691C118.253 90.7456 118 92.2339 118.433 93.6767C118.867 95.1195 119.906 96.1226 120.686 97.3658C118.042 97.9621 115.927 100.593 116.761 103.059C116.935 103.569 117.24 104.035 117.651 104.421C118.062 104.806 118.568 105.099 119.129 105.277C119.33 105.322 119.534 105.354 119.74 105.371C119.809 105.377 119.875 105.396 119.936 105.427C119.996 105.457 120.049 105.498 120.09 105.548C120.132 105.597 120.162 105.654 120.178 105.715C120.195 105.775 120.197 105.838 120.185 105.899C120.143 106.065 120.121 106.234 120.12 106.404C120.122 106.811 120.24 107.211 120.464 107.565C120.688 107.919 121.01 108.216 121.399 108.426C121.456 108.455 121.507 108.494 121.547 108.541C121.587 108.588 121.616 108.642 121.632 108.699C121.648 108.757 121.651 108.817 121.641 108.875C121.63 108.934 121.606 108.99 121.57 109.04C121.179 109.539 120.949 110.126 120.906 110.736C120.862 111.345 121.008 111.954 121.325 112.494C122.195 114.058 124.327 115.415 126.338 114.879C126.985 114.703 127.544 114.333 127.923 113.831C127.964 113.793 127.999 113.75 128.027 113.704C128.035 113.689 128.045 113.675 128.058 113.664C128.348 113.276 128.54 112.836 128.621 112.375C129.117 113.08 129.671 113.75 130.28 114.379L130.646 114.745L129.534 120.901L129.371 122.01C129.31 122.394 129.097 122.745 128.772 122.999C128.446 123.254 128.028 123.394 127.596 123.395C127.351 123.395 127.098 123.395 126.853 123.395C126.355 123.395 125.862 123.407 125.372 123.42C123.882 123.453 122.398 123.513 120.917 123.594C119.791 123.66 118.69 123.733 117.583 123.822C117.02 123.862 116.479 123.908 115.922 123.961C115.364 124.014 114.812 124.062 114.26 124.115C113.182 124.223 112.095 124.335 111.013 124.463C109.71 124.618 108.414 124.777 107.11 124.944C105.072 125.211 103.039 125.504 100.997 125.82C99.0089 126.129 97.0293 126.449 95.0412 126.775C92.2478 127.238 89.4262 127.624 86.5934 128.039C85.8495 128.147 85.0886 128.111 84.3614 127.934C83.6342 127.757 82.9575 127.442 82.3765 127.012C81.7955 126.581 81.3235 126.044 80.9921 125.437C80.6606 124.83 80.4774 124.166 80.4546 123.491C80.1364 115.152 85.3994 99.9432 85.3994 99.9432C85.5205 98.7606 87.089 97.9217 88.007 97.2496C90.6343 95.3873 92.1859 92.0519 93.0926 89.2446C93.7346 87.2409 94.3429 84.3805 92.4534 82.7381C91.4171 81.836 89.9641 81.6414 88.9757 82.7103C88.2463 83.4986 86.9285 88.2491 85.0052 86.5258C84.6745 86.1917 84.4764 85.7688 84.442 85.323C84.2758 84.1885 84.7236 82.685 85.9513 82.1215C87.0383 81.6162 88.3731 81.975 89.46 81.4418C90.3048 81.0123 90.4343 79.6377 90.0992 78.8872C89.4825 77.5126 87.6437 76.9365 86.0499 76.8102C85.3391 76.7593 84.6238 76.8018 83.9267 76.9365C85.2811 74.3768 86.5342 71.0035 83.8 70.0358C82.423 69.5481 80.7024 70.3693 79.8013 71.284C79.6182 71.4714 79.4471 71.6679 79.2888 71.8728C78.8262 71.5727 78.2509 71.4475 77.6865 71.524C75.5042 71.7995 74.2848 74.2505 73.5471 76.3705C71.269 76.2694 69.9793 78.8973 69.2415 80.4917C68.4054 82.3283 67.9612 84.2894 67.9321 86.2731C67.8617 88.3833 68.0277 90.4945 68.4277 92.575C68.6135 93.472 68.9486 94.3261 69.188 95.2029C69.4499 96.158 69.1654 97.1056 68.7797 98.0026C67.2675 101.437 65.1358 104.651 63.5364 108.059C61.8021 111.667 60.4116 115.4 59.38 119.218C57.3919 126.755 56.9836 134.748 59.3068 142.265C63.6997 156.471 85.957 151.806 98.7076 147.824C104.038 146.161 107.719 144.61 107.719 144.61C107.719 144.61 107.747 145.711 107.747 147.576V147.829C107.733 150.356 107.488 170.515 103.703 185.317L103.576 185.511C103.607 185.491 103.667 185.491 103.703 185.671C103.495 186.075 103.162 186.417 102.744 186.656C102.326 186.895 101.839 187.022 101.343 187.02C92.2816 186.987 54.1226 188.142 61.3568 210.267C62.7113 214.423 66.2481 217.089 71.2126 218.666C75.155 219.929 80.0012 220.477 85.3684 220.518H85.405C74.9128 222.302 72.4714 236.308 84.1773 238.425C88.6828 239.239 92.2506 236.621 96.3 235.504C98.6142 234.891 101.024 234.616 103.436 234.691C105.01 234.725 106.579 234.856 108.133 235.085C125.144 237.584 142.406 238.426 159.619 237.597C171.258 237.023 183.121 235.712 194.166 232.217C202.49 229.579 211.624 224.963 215.725 217.814C217.177 215.298 217.928 212.504 217.913 209.67C217.901 202.936 214.432 198.145 209.225 194.772Z" fill="white"/>
<path d="M33.6276 218.287L33.2024 217.926" stroke="#CCDDE2" stroke-width="0.585007" stroke-miterlimit="10"/>
<path d="M172.851 180.506L171.598 175.439C171.132 173.978 170.768 172.492 170.506 170.99C169.21 163.392 168.253 153.951 167.912 150.416L171.95 151.571L170.542 148.759C170.542 148.759 165.904 134.753 175.183 128.585C168.472 126.535 163.097 127.589 156.817 126.293C154.398 125.787 151.844 125.345 149.023 124.931L146.981 124.61C146.899 129.588 143.039 130.717 139.862 131.258C132.042 132.602 126.627 127.483 126.853 123.026C118.171 123.114 109.591 124.142 100.999 125.451C102.109 128.372 104.446 137.125 97.8708 147.475L98.7156 147.45C104.046 145.785 107.727 144.236 107.727 144.236C107.727 144.236 107.758 145.337 107.758 147.202V147.455C107.744 149.967 107.499 170.141 103.714 184.94C103.432 185.423 103.652 184.829 103.714 185.365C103.484 185.776 103.327 186.217 103.247 186.671L103.43 186.017C102.41 187.328 104.961 188.917 108.647 189.718C118.284 191.831 171.401 195.53 174.4 186.671C174.577 186.143 174.582 185.58 174.417 185.049C173.981 183.512 173.459 181.995 172.851 180.506Z" fill="#353642"/>
<path d="M103.433 234.309C101.024 234.237 98.6173 234.512 96.3057 235.125C92.2535 236.24 88.6801 238.86 84.1802 238.044C72.4743 235.926 74.9185 221.92 85.4108 220.136C86.416 220.116 87.4213 220.111 88.4182 220.111H88.4858C93.318 220.111 98.0262 220.225 101.89 219.027C101.526 219.328 92.1127 226.82 103.433 234.309Z" fill="#3FBDF1"/>
<path d="M146.973 124.6V124.613C146.891 129.59 143.03 130.72 139.854 131.261C132.034 132.605 126.619 127.486 126.844 123.028" stroke="black" stroke-width="0.585007" stroke-miterlimit="10"/>
<path d="M85.4186 220.136C74.9263 221.92 72.4821 235.927 84.188 238.044C88.6935 238.86 92.2613 236.24 96.3135 235.126C98.6269 234.512 101.035 234.236 103.446 234.309C105.017 234.348 106.582 234.484 108.132 234.716C125.143 237.221 142.405 238.068 159.619 237.243C171.257 236.667 183.118 235.358 194.162 231.863C202.489 229.223 211.621 224.606 215.721 217.461C217.175 214.944 217.926 212.148 217.909 209.314C217.909 202.573 214.431 197.782 209.236 194.406C208.512 193.938 207.76 193.499 206.983 193.077C199.194 188.94 188.584 187.336 179.685 186.856C179.142 186.823 178.604 186.795 178.077 186.775C177.376 186.749 176.69 186.585 176.067 186.295C175.42 186.004 174.859 185.581 174.428 185.059C174.009 184.565 173.714 183.995 173.564 183.389L172.857 180.508L171.604 175.442L170.505 170.99C169.21 163.392 168.253 153.952 167.912 150.417" stroke="black" stroke-width="0.585007" stroke-miterlimit="10"/>
<path d="M183.366 213.342C179.894 220.465 171.308 218.026 161.875 212.899C156.02 209.718 151.025 209.266 148.076 209.362C152.233 209.028 155.865 207.879 156.888 203.661C157.713 200.235 155.561 197.092 151.839 196.081C160.788 195.727 169.97 196.334 177.253 201.387C177.258 201.387 186.844 206.211 183.366 213.342Z" fill="#3FBDF1"/>
<path d="M151.78 108.097C151.748 108.101 151.716 108.101 151.684 108.097C151.771 108.491 151.937 108.913 152.047 109.333C152.135 109.65 152.173 109.977 152.16 110.303C152.042 111.832 150.834 112.661 149.195 112.701C149.236 113.052 149.158 113.406 148.971 113.716C148.784 114.026 148.497 114.279 148.147 114.44C147.269 114.854 145.83 114.76 145.168 114.03C144.385 113.184 144.774 112.133 145.25 111.205C145.421 110.879 145.593 110.571 145.734 110.291C145.906 109.942 146.055 109.596 146.187 109.242C146.656 107.933 147.019 106.595 147.274 105.239C147.586 103.87 147.792 102.483 147.891 101.088C147.787 100.749 147.854 100.259 147.705 99.9053C147.488 99.3593 147.096 98.8829 146.579 98.5357C145.509 97.8282 144.084 97.8737 142.946 97.2471C141.916 96.6714 141.104 95.8305 140.615 94.8339C140.519 94.6267 140.429 94.3589 140.294 94.1264C140.233 94.0002 140.142 93.8879 140.026 93.7979C139.513 93.4113 139.215 94.0936 138.9 94.3589C138.576 94.6268 138.193 94.8298 137.776 94.9544C137.358 95.0791 136.916 95.1224 136.478 95.0816C136.147 95.0424 135.825 94.9572 135.523 94.8289C135.302 94.7209 135.095 94.5903 134.907 94.4398C134.683 94.2445 134.423 94.0863 134.138 93.9723C133.603 93.7929 133.575 94.5863 133.499 94.8617C133.448 95.0998 133.337 95.3244 133.176 95.5187C133.015 95.713 132.806 95.872 132.567 95.9836C132.277 96.1113 131.96 96.1795 131.637 96.1833C131.262 96.1969 130.886 96.1515 130.528 96.0493C130.182 95.9572 129.853 95.8201 129.551 95.6425C129.496 95.6098 129.433 95.5913 129.368 95.5893C129.303 95.5872 129.238 95.6016 129.182 95.6308C129.125 95.66 129.079 95.7029 129.048 95.7545C129.017 95.8062 129.003 95.8645 129.007 95.923C129.111 98.5357 126.388 99.4454 125.27 99.7132C124.895 104.025 126.069 108.332 128.621 112.001C128.527 112.532 128.286 113.033 127.92 113.459C126.081 113.874 123.958 113.424 123.161 112.001C122.316 110.485 122.432 108.385 123.744 107.304C122.835 107.177 122.581 105.972 123.102 105.265C123.147 105.196 123.167 105.156 123.139 105.09C123.026 104.815 121.689 104.585 121.322 104.484C120.8 104.317 120.328 104.042 119.945 103.682C119.562 103.323 119.278 102.888 119.115 102.412C118.34 100.12 120.306 97.6741 122.761 97.1207C122.032 95.9634 121.072 95.0285 120.664 93.6918C120.255 92.3551 120.486 90.9654 121.624 89.9547C122.087 89.5597 122.652 89.2748 123.269 89.1256C123.885 88.9765 124.534 88.9679 125.155 89.1006C125.517 89.3368 125.838 89.6205 126.107 89.942C125.941 89.7226 125.809 89.4848 125.713 89.2345C126.546 89.4884 127.277 89.9579 127.813 90.5838C126.853 89.2952 127.211 87.5365 128.289 86.3994C129.593 85.0299 132.155 84.7292 133.941 85.4316C134.07 85.4838 134.195 85.5438 134.315 85.6111C134.484 85.8006 134.656 85.9876 134.828 86.167C134.847 86.1185 134.869 86.0712 134.895 86.0255C135.258 86.3598 135.601 86.7106 135.923 87.0766C137.083 84.1152 141.693 84.1076 144.129 85.6515C144.703 86.0188 145.172 86.5017 145.5 87.0614C145.624 87.5534 145.613 88.0648 145.469 88.5523C145.32 89.0197 145.438 89.3735 145.773 89.4746C146.025 89.5296 146.291 89.499 146.52 89.3887C147.412 89.0273 148.15 88.5851 149.186 88.6862C152.565 89.0071 155.029 92.9489 153.027 95.5212C152.909 95.681 152.774 95.8307 152.625 95.9685C152.343 96.2212 151.709 96.5168 151.569 96.8781C151.565 96.8871 151.565 96.897 151.569 96.9059C151.315 97.664 153.185 97.8333 153.683 98.0278C158.099 99.6981 157.167 107.845 151.78 108.097Z" fill="#3FBDF1"/>
<path d="M75.0159 87.5517C73.9656 85.5454 74.7343 82.7331 75.9311 80.608C76.8463 78.958 76.117 76.3124 73.7797 76.0168C71.3524 75.7237 69.9951 78.4703 69.2376 80.1279C68.3999 81.965 67.9548 83.9271 67.9254 85.9118C67.8632 88.0226 68.0358 90.1337 68.4407 92.2137C68.6265 93.1082 68.9616 93.9648 69.1982 94.8391C69.46 95.7942 69.1756 96.7443 68.7898 97.6388C67.2777 101.073 65.1488 104.287 63.5465 107.696C61.8148 111.304 60.4254 115.036 59.393 118.854C57.405 126.391 56.9938 134.384 59.317 141.901C63.7099 156.107 85.97 151.442 98.7178 147.46C104.048 145.795 107.729 144.246 107.729 144.246C107.729 144.246 107.76 145.348 107.76 147.212C107.76 147.298 107.76 147.387 107.76 147.465C107.777 154.962 107.442 173.8 103.843 184.991C103.687 185.474 103.36 185.897 102.911 186.198C102.462 186.499 101.916 186.659 101.356 186.656C92.2946 186.623 54.1384 187.778 61.3698 209.89C63.8141 217.359 73.2785 220.045 85.3702 220.139H85.4237C86.4064 220.139 87.4118 220.139 88.4311 220.114H88.4987C92.9904 219.974 97.47 219.61 101.917 219.025C117.669 217.033 134.43 212.783 145.257 209.721C145.881 209.573 146.52 209.478 147.163 209.435C147.431 209.408 147.727 209.387 148.059 209.375H148.087C151.03 209.269 156.025 209.721 161.885 212.912C171.319 218.039 179.907 220.478 183.377 213.354C186.846 206.231 177.258 201.387 177.258 201.387C169.975 196.334 160.793 195.735 151.844 196.081C149.081 196.19 146.333 196.397 143.677 196.586C133.05 197.346 122.421 198.104 111.789 198.861L97.8618 199.871" stroke="black" stroke-width="0.585007" stroke-miterlimit="10"/>
<path d="M78.8048 86.2125C78.8048 86.2125 77.287 83.4608 79.1652 79.1576C79.9396 77.3888 80.8322 75.2486 80.4662 73.3106C80.3516 72.593 79.9267 71.9449 79.2835 71.5064C78.8211 71.206 78.2453 71.0816 77.6812 71.1602C75.5016 71.4331 74.2795 73.8867 73.5417 76.0041" stroke="black" stroke-width="0.585007" stroke-miterlimit="10"/>
<path d="M81.9747 84.6155C81.9747 84.6155 80.5329 82.4247 82.4985 79.0565C82.8279 78.4955 83.3855 77.5985 83.9064 76.5777C85.2637 74.018 86.514 70.6447 83.7797 69.6744C82.4027 69.1867 80.6822 70.0079 79.7811 70.9252C79.5979 71.1117 79.4268 71.3074 79.2686 71.5114" stroke="black" stroke-width="0.585007" stroke-miterlimit="10"/>
<path d="M83.9147 76.5627C84.6117 76.4268 85.3272 76.3842 86.038 76.4364C87.6318 76.5627 89.4706 77.1363 90.0901 78.5134C90.4252 79.2714 90.3041 80.6385 89.4481 81.0655C88.3611 81.6012 87.0292 81.2474 85.9422 81.7477C84.7286 82.3087 84.2527 83.8121 84.4301 84.9492C84.4645 85.395 84.6625 85.8179 84.9933 86.152C86.9137 87.8753 88.2316 83.1198 88.9609 82.3365C89.9522 81.2676 91.4024 81.4597 92.4386 82.3617C94.331 84.0042 93.7199 86.862 93.075 88.8683C92.1711 91.6756 90.6195 95.011 88.0063 96.8707C87.0714 97.5327 85.517 98.3868 85.3988 99.5694C85.3988 99.5694 80.1357 114.768 80.4511 123.114C80.474 123.79 80.6572 124.453 80.9884 125.06C81.3197 125.667 81.7914 126.204 82.3721 126.634C82.9528 127.065 83.6291 127.379 84.356 127.556C85.0828 127.734 85.8434 127.77 86.5871 127.663C89.403 127.251 92.2359 126.864 95.0349 126.399C97.023 126.073 99.0026 125.752 100.991 125.444C109.83 124.095 118.655 123.046 127.59 123.011C128.022 123.011 128.44 122.872 128.766 122.618C129.092 122.364 129.304 122.012 129.364 121.628L129.533 120.529L130.645 114.361" stroke="black" stroke-width="0.585007" stroke-miterlimit="10"/>
<path d="M198.831 88.8885C199.882 86.8822 199.113 84.0698 197.916 81.9448C196.992 80.2948 197.73 77.6492 200.067 77.3536C200.149 77.3536 200.231 77.3409 200.307 77.3409C202.607 77.2398 203.903 79.9208 204.632 81.5177C205.48 83.4176 205.918 85.4447 205.922 87.4911C205.943 89.2163 205.801 90.9399 205.497 92.6433C205.237 94.0584 204.401 95.4633 204.522 96.9187C204.618 98.1417 205.423 99.299 205.989 100.401C208.431 105.118 211.289 109.674 213.249 114.551C213.996 116.377 214.581 118.254 214.998 120.163C216.469 127.098 215.936 134.256 213.449 140.954C212.091 144.577 209.704 148.145 206.262 150.47C205.906 150.71 205.541 150.938 205.167 151.152C200.707 153.744 194.979 154.513 189.761 154.411C184.219 154.305 178.644 153.29 173.324 151.933C172.395 151.693 171.469 151.441 170.548 151.175C169.579 150.899 168.619 150.619 167.659 150.326C166.653 150.012 165.648 149.696 164.651 149.363" stroke="black" stroke-width="0.585007" stroke-miterlimit="10"/>
<path d="M200.307 77.3408C199.569 75.2233 198.336 72.7698 196.167 72.4969C195.603 72.4183 195.027 72.5427 194.565 72.8431C193.922 73.2816 193.497 73.9297 193.382 74.6472C193.016 76.5853 193.909 78.723 194.683 80.4943C196.562 84.7899 195.041 87.5517 195.041 87.5517" stroke="black" stroke-width="0.585007" stroke-miterlimit="10"/>
<path d="M194.564 72.8432C194.407 72.636 194.229 72.444 194.052 72.2545C193.142 71.3398 191.43 70.5185 190.05 71.0062C187.319 71.974 188.569 75.3498 189.927 77.9095C190.462 78.9202 191.019 79.8273 191.334 80.3883C193.306 83.7616 191.855 85.9473 191.855 85.9473" stroke="black" stroke-width="0.585007" stroke-miterlimit="10"/>
<path d="M189.927 77.9095C189.23 77.774 188.514 77.7306 187.804 77.7806C186.21 77.9095 184.371 78.4831 183.751 79.8602C183.416 80.6182 183.537 81.9853 184.393 82.4123C185.48 82.948 186.812 82.5917 187.899 83.0945C189.113 83.6555 189.589 85.1589 189.411 86.296C189.377 86.7418 189.179 87.1647 188.848 87.4988C186.928 89.2221 185.61 84.4666 184.881 83.6833C183.889 82.6119 182.439 82.8065 181.403 83.7085C179.361 85.4773 180.248 89.0401 181.104 91.1804C182.036 93.5177 183.242 95.9813 185.171 97.8006C188.381 100.833 188.73 105.634 189.58 109.528C189.93 111.14 190.265 112.762 190.532 114.387C191.067 117.533 191.377 120.704 191.095 123.882C191.024 124.755 190.752 125.605 190.297 126.379C189.842 127.153 189.213 127.834 188.451 128.38C187.689 128.926 186.809 129.324 185.867 129.55C184.925 129.776 183.941 129.825 182.977 129.694C170.384 127.963 146.012 124.448 146.012 124.448C145.813 124.418 145.632 124.325 145.501 124.186C145.37 124.047 145.298 123.872 145.297 123.69L145.178 114.04" stroke="black" stroke-width="0.585007" stroke-miterlimit="10"/>
<path d="M125.259 99.7058C124.744 104.676 126.667 110.296 130.271 114C136.996 120.901 142.662 114 142.662 114" stroke="black" stroke-width="0.585007" stroke-miterlimit="10"/>
<path d="M147.964 101.247C147.767 100.919 147.882 100.325 147.713 99.9078C147.495 99.3617 147.103 98.8847 146.587 98.5358C145.511 97.8308 144.089 97.8738 142.954 97.2522C141.924 96.6736 141.11 95.8314 140.617 94.834C140.459 94.5156 140.335 94.0305 140.034 93.8005C139.519 93.4139 139.22 94.0936 138.908 94.3615C138.462 94.7345 137.901 94.9787 137.299 95.0625C136.696 95.1463 136.08 95.0658 135.529 94.8315C135.022 94.6066 134.67 94.1543 134.14 93.9749C133.611 93.7955 133.577 94.5864 133.498 94.8643C133.448 95.1021 133.338 95.3267 133.178 95.5214C133.018 95.716 132.81 95.8758 132.572 95.9887C131.64 96.4006 130.367 96.1302 129.556 95.6426C129.502 95.6089 129.438 95.5898 129.372 95.5874C129.306 95.5851 129.24 95.5995 129.183 95.6292C129.126 95.6588 129.079 95.7024 129.049 95.7548C129.018 95.8073 129.004 95.8665 129.01 95.9256C129.136 99.2104 124.8 99.7992 124.8 99.7992" stroke="black" stroke-width="0.585007" stroke-miterlimit="10"/>
<path d="M131.378 106.935C133.546 106.935 135.303 105.358 135.303 103.413C135.303 101.467 133.546 99.8901 131.378 99.8901C129.21 99.8901 127.452 101.467 127.452 103.413C127.452 105.358 129.21 106.935 131.378 106.935Z" stroke="black" stroke-width="0.585007" stroke-miterlimit="10"/>
<path d="M141.552 106.622C143.72 106.622 145.477 105.045 145.477 103.099C145.477 101.154 143.72 99.5769 141.552 99.5769C139.384 99.5769 137.626 101.154 137.626 103.099C137.626 105.045 139.384 106.622 141.552 106.622Z" stroke="black" stroke-width="0.585007" stroke-miterlimit="10"/>
<path d="M129.736 103.766C129.736 103.766 131.319 105.396 132.946 103.766" stroke="black" stroke-width="0.585007" stroke-miterlimit="10"/>
<path d="M139.952 103.766C139.952 103.766 141.535 105.396 143.165 103.766" stroke="black" stroke-width="0.585007" stroke-miterlimit="10"/>
<path d="M136.937 111.536C137.7 111.536 138.319 110.981 138.319 110.296C138.319 109.61 137.7 109.055 136.937 109.055C136.173 109.055 135.554 109.61 135.554 110.296C135.554 110.981 136.173 111.536 136.937 111.536Z" stroke="black" stroke-width="0.585007" stroke-miterlimit="10"/>
<path d="M135.304 103.412C135.304 103.412 136.194 102.111 137.627 103.099" stroke="black" stroke-width="0.585007" stroke-miterlimit="10"/>
<path d="M133.498 98.1847C133.498 98.1847 129.424 95.39 126.008 98.0255" stroke="black" stroke-width="0.585007" stroke-miterlimit="10"/>
<path d="M145.421 96.719C145.421 96.719 140.581 95.203 138.243 98.652" stroke="black" stroke-width="0.585007" stroke-miterlimit="10"/>
<path d="M128.491 111.88C128.482 112.466 128.267 113.034 127.878 113.504C127.489 113.974 126.945 114.323 126.323 114.5C124.312 115.033 122.183 113.679 121.31 112.115C120.992 111.574 120.847 110.965 120.891 110.355C120.934 109.745 121.166 109.158 121.558 108.658C121.593 108.608 121.617 108.552 121.627 108.494C121.637 108.436 121.634 108.376 121.618 108.319C121.601 108.262 121.572 108.208 121.532 108.161C121.492 108.114 121.441 108.075 121.384 108.047C120.993 107.836 120.67 107.537 120.446 107.181C120.221 106.824 120.104 106.422 120.105 106.013C120.106 105.843 120.127 105.673 120.167 105.507C120.18 105.446 120.178 105.383 120.163 105.322C120.147 105.261 120.117 105.204 120.075 105.154C120.033 105.104 119.98 105.063 119.919 105.032C119.859 105.001 119.792 104.983 119.722 104.977C119.517 104.96 119.314 104.93 119.114 104.886C118.554 104.707 118.048 104.414 117.637 104.029C117.225 103.643 116.92 103.177 116.746 102.667C115.901 100.201 118.027 97.568 120.671 96.9742C119.883 95.731 118.838 94.7279 118.418 93.2851C117.999 91.8423 118.241 90.3515 119.46 89.275C121.361 87.6048 124.585 88.1253 126.117 89.9573C125.084 88.5675 125.47 86.6724 126.633 85.4545C128.041 83.9839 130.786 83.663 132.709 84.4109C133.625 84.7722 134.213 85.5202 134.838 86.1797C136.089 83.006 141.033 82.9858 143.663 84.6484C145.032 85.5252 145.916 87.1146 145.48 88.565C145.249 89.3003 145.674 89.74 146.53 89.4014C147.386 89.0628 148.161 88.5978 149.197 88.6989C152.784 89.04 155.333 93.4493 152.635 95.9812C152.354 96.249 151.72 96.5295 151.579 96.8909C151.272 97.6489 153.179 97.846 153.685 98.0406C158.14 99.7184 157.163 107.951 151.714 108.118C151.878 108.817 152.249 109.593 152.19 110.316C152.072 111.845 150.864 112.673 149.225 112.721C149.265 113.071 149.187 113.423 149 113.732C148.813 114.041 148.526 114.292 148.177 114.452C147.299 114.872 145.86 114.773 145.198 114.043C144.139 112.896 145.226 111.392 145.761 110.296C146.55 108.691 146.938 106.96 147.296 105.242C147.623 103.818 147.834 102.375 147.927 100.924V100.863" stroke="black" stroke-width="0.585007" stroke-miterlimit="10"/>
<path d="M14.0791 218.287H71.3077" stroke="black" stroke-width="0.585007" stroke-miterlimit="10"/>
<path d="M215.313 218.287H267.515" stroke="black" stroke-width="0.585007" stroke-miterlimit="10"/>
</svg>
